<svg width="15" height="15" viewBox="0 0 15 15" fill="none" xmlns="http://www.w3.org/2000/svg">
<path d="M7.75 14.5001C9.08502 14.5001 10.3901 14.1042 11.5001 13.3625C12.6101 12.6208 13.4753 11.5666 13.9862 10.3332C14.4971 9.09981 14.6308 7.74261 14.3703 6.43324C14.1099 5.12386 13.467 3.92113 12.523 2.97712C11.579 2.03312 10.3762 1.39024 9.06686 1.12979C7.75749 0.869344 6.40029 1.00302 5.16689 1.51391C3.93349 2.0248 2.87928 2.88996 2.13758 4C1.39588 5.11003 1 6.41507 1 7.75009C1 8.86609 1.27 9.9176 1.75 10.8453L1 14.5001L4.65475 13.7501C5.58175 14.2293 6.63475 14.5001 7.75 14.5001Z" stroke="#FF5757" stroke-linecap="round" stroke-linejoin="round"/>
</svg>
