<svg width="21" height="23" viewBox="0 0 21 23" fill="none" xmlns="http://www.w3.org/2000/svg">
<path d="M1.91855 9.25626H6.39668V1.41953C6.39668 1.12261 6.51463 0.837856 6.72458 0.627903C6.93453 0.41795 7.21929 0.3 7.51621 0.3H14.2334C14.5303 0.3 14.8151 0.41795 15.025 0.627903C15.235 0.837856 15.3529 1.12261 15.3529 1.41953V9.25626H19.8311C20.0418 9.25661 20.2482 9.31641 20.4266 9.42876C20.6049 9.54112 20.7479 9.70149 20.8392 9.89146C20.9305 10.0814 20.9664 10.2933 20.9427 10.5027C20.9191 10.7122 20.8368 10.9107 20.7054 11.0755L11.7492 22.2708C11.3226 22.8026 10.427 22.8026 10.0005 22.2708L1.0442 11.0755C0.912807 10.9107 0.830557 10.7122 0.806892 10.5027C0.783226 10.2933 0.819104 10.0814 0.910406 9.89146C1.00171 9.70149 1.14473 9.54112 1.32306 9.42876C1.50138 9.31641 1.70778 9.25661 1.91855 9.25626Z" fill="#FF5757"/>
</svg>
