<svg width="40" height="40" viewBox="0 0 40 40" fill="none" xmlns="http://www.w3.org/2000/svg">
<path d="M15.1683 39.4117V26.1117H11.045V20H15.1683V17.3667C15.1683 10.5583 18.2483 7.40333 24.9317 7.40333C25.6 7.40333 26.5233 7.47333 27.3783 7.575C28.0185 7.64241 28.6537 7.75097 29.28 7.9V13.4417C28.9181 13.4085 28.5551 13.3885 28.1917 13.3817C27.7845 13.3711 27.3773 13.3661 26.97 13.3667C25.7917 13.3667 24.8717 13.5267 24.1783 13.8817C23.7129 14.1165 23.3213 14.4752 23.0467 14.9183C22.6167 15.6183 22.4233 16.5767 22.4233 17.8383V20H28.955L28.3117 23.505L27.8333 26.1117H22.4233V39.8533C32.3267 38.6567 40 30.225 40 20C40 8.955 31.045 0 20 0C8.955 0 0 8.955 0 20C0 29.38 6.45667 37.25 15.1683 39.4117Z" fill="#FF5757"/>
</svg>
