<svg width="21" height="23" viewBox="0 0 21 23" fill="none" xmlns="http://www.w3.org/2000/svg">
<path d="M1.51865 13.7134H5.99678V21.5501C5.99678 21.847 6.11473 22.1318 6.32468 22.3417C6.53463 22.5517 6.81939 22.6697 7.11631 22.6697H13.8335C14.1304 22.6697 14.4152 22.5517 14.6251 22.3417C14.8351 22.1318 14.953 21.847 14.953 21.5501V13.7134H19.4312C19.6419 13.713 19.8483 13.6532 20.0267 13.5409C20.205 13.4285 20.348 13.2682 20.4393 13.0782C20.5306 12.8882 20.5665 12.6764 20.5428 12.4669C20.5192 12.2575 20.4369 12.059 20.3055 11.8942L11.3493 0.698836C10.9227 0.167059 10.0271 0.167059 9.60055 0.698836L0.644294 11.8942C0.512904 12.059 0.430655 12.2575 0.406989 12.4669C0.383324 12.6764 0.419202 12.8882 0.510504 13.0782C0.601806 13.2682 0.744831 13.4285 0.923156 13.5409C1.10148 13.6532 1.30788 13.713 1.51865 13.7134Z" fill="#FF5757"/>
</svg>
