<svg width="37" height="37" viewBox="0 0 37 37" fill="none" xmlns="http://www.w3.org/2000/svg">
<path fill-rule="evenodd" clip-rule="evenodd" d="M4.51372e-07 3.04941C4.51372e-07 2.24066 0.321277 1.46503 0.893152 0.893155C1.46503 0.32128 2.24066 4.06529e-06 3.04941 4.06529e-06H33.4473C33.8481 -0.000650532 34.2451 0.0777539 34.6155 0.230728C34.986 0.383703 35.3226 0.608243 35.6062 0.891494C35.8897 1.17474 36.1146 1.51114 36.268 1.88143C36.4214 2.25172 36.5002 2.64862 36.5 3.04941V33.4473C36.5004 33.8481 36.4218 34.2452 36.2687 34.6156C36.1155 34.9861 35.8908 35.3227 35.6074 35.6063C35.3241 35.8898 34.9875 36.1147 34.6172 36.268C34.2468 36.4214 33.8498 36.5002 33.4489 36.5H3.04941C2.64882 36.5 2.25215 36.4211 1.88207 36.2677C1.51199 36.1144 1.17575 35.8896 0.892565 35.6063C0.609379 35.3229 0.384796 34.9866 0.231647 34.6164C0.078497 34.2462 -0.0002175 33.8495 4.51372e-07 33.4489V3.04941ZM14.4474 13.9165H19.3898V16.3985C20.1032 14.9716 21.9282 13.6875 24.6707 13.6875C29.9283 13.6875 31.1743 16.5295 31.1743 21.744V31.4033H25.8536V22.932C25.8536 19.9622 25.1402 18.2865 23.3285 18.2865C20.815 18.2865 19.7697 20.0933 19.7697 22.932V31.4033H14.4474V13.9165ZM5.32236 31.176H10.6447V13.6875H5.32236V31.176ZM11.4062 7.98355C11.4163 8.43926 11.3352 8.89238 11.1677 9.31632C11.0003 9.74026 10.7498 10.1265 10.4311 10.4523C10.1123 10.7782 9.73173 11.0371 9.31157 11.2138C8.89142 11.3906 8.44019 11.4816 7.98438 11.4816C7.52856 11.4816 7.07733 11.3906 6.65718 11.2138C6.23702 11.0371 5.85641 10.7782 5.53766 10.4523C5.21892 10.1265 4.96847 9.74026 4.80101 9.31632C4.63355 8.89238 4.55246 8.43926 4.5625 7.98355C4.5822 7.08906 4.95137 6.23784 5.59095 5.61219C6.23053 4.98654 7.08967 4.6362 7.98438 4.6362C8.87908 4.6362 9.73822 4.98654 10.3778 5.61219C11.0174 6.23784 11.3866 7.08906 11.4062 7.98355Z" fill="#FF5757"/>
</svg>
