<svg width="197" height="102" viewBox="0 0 197 102" fill="none" xmlns="http://www.w3.org/2000/svg">
<path d="M70.6698 23.9023V14.802H86.6592V0.0883246H95.9296V14.802H111.834V23.9023H95.9296V38.616H86.6592V23.9023H70.6698Z" fill="#FF5757"/>
<path d="M0.0960799 92.9741V66.7787H5.78422L14.1293 83.3941L22.3622 66.7787H28.0503V92.9741H23.2603V74.8993L15.963 89.2319H12.1834L4.8861 74.8993V92.9741H0.0960799ZM39.4196 93.4232C37.8229 93.4232 36.5131 93.1737 35.4903 92.6747C34.4674 92.1508 33.7065 91.4648 33.2075 90.6165C32.7086 89.7683 32.4591 88.8328 32.4591 87.8099C32.4591 86.0885 33.1327 84.6914 34.4799 83.6186C35.8271 82.5459 37.8479 82.0095 40.5422 82.0095H45.2574V81.5604C45.2574 80.2881 44.8957 79.3525 44.1722 78.7538C43.4487 78.155 42.5506 77.8556 41.4778 77.8556C40.5048 77.8556 39.6566 78.0926 38.9331 78.5667C38.2096 79.0157 37.7605 79.6893 37.5859 80.5874H32.9082C33.0329 79.2402 33.482 78.0677 34.2553 77.0698C35.0537 76.0719 36.0765 75.3109 37.3239 74.787C38.5713 74.2382 39.9684 73.9637 41.5152 73.9637C44.1597 73.9637 46.2429 74.6249 47.7647 75.9471C49.2865 77.2694 50.0474 79.1405 50.0474 81.5604V92.9741H45.9684L45.5194 89.9804C44.9705 90.9783 44.1971 91.8016 43.1992 92.4502C42.2262 93.0989 40.9664 93.4232 39.4196 93.4232ZM40.5048 89.681C41.877 89.681 42.9372 89.2319 43.6857 88.3338C44.4591 87.4357 44.9456 86.3255 45.1451 85.0032H41.0661C39.7938 85.0032 38.8832 85.2402 38.3343 85.7143C37.7855 86.1633 37.5111 86.7246 37.5111 87.3982C37.5111 88.1217 37.7855 88.6831 38.3343 89.0822C38.8832 89.4814 39.6067 89.681 40.5048 89.681ZM54.6185 92.9741V74.4128H58.8472L59.2214 77.5563C59.7952 76.4585 60.6185 75.5854 61.6912 74.9367C62.7889 74.2881 64.0738 73.9637 65.5457 73.9637C67.8409 73.9637 69.6247 74.6872 70.897 76.1342C72.1694 77.5812 72.8056 79.7018 72.8056 82.496V92.9741H68.0155V82.945C68.0155 81.3484 67.6912 80.1259 67.0426 79.2777C66.3939 78.4294 65.3835 78.0053 64.0114 78.0053C62.6642 78.0053 61.554 78.4793 60.6808 79.4274C59.8326 80.3754 59.4085 81.6976 59.4085 83.3941V92.9741H54.6185ZM79.0849 101.207L83.3884 91.7392H82.2657L75.0433 74.4128H80.2449L85.4466 87.4731L90.8728 74.4128H95.9622L84.1742 101.207H79.0849ZM108.123 92.9741V66.7787H113.811L122.156 83.3941L130.389 66.7787H136.077V92.9741H131.287V74.8993L123.99 89.2319H120.21L112.913 74.8993V92.9741H108.123ZM149.954 93.4232C148.157 93.4232 146.536 93.0115 145.089 92.1883C143.667 91.365 142.532 90.2298 141.683 88.7829C140.86 87.3109 140.448 85.6145 140.448 83.6935C140.448 81.7725 140.873 80.0885 141.721 78.6415C142.569 77.1696 143.704 76.022 145.126 75.1987C146.573 74.3754 148.195 73.9637 149.991 73.9637C151.762 73.9637 153.359 74.3754 154.781 75.1987C156.228 76.022 157.363 77.1696 158.186 78.6415C159.035 80.0885 159.459 81.7725 159.459 83.6935C159.459 85.6145 159.035 87.3109 158.186 88.7829C157.363 90.2298 156.228 91.365 154.781 92.1883C153.334 93.0115 151.725 93.4232 149.954 93.4232ZM149.954 89.2693C151.201 89.2693 152.286 88.8078 153.209 87.8847C154.132 86.9367 154.594 85.5396 154.594 83.6935C154.594 81.8473 154.132 80.4627 153.209 79.5396C152.286 78.5916 151.214 78.1176 149.991 78.1176C148.719 78.1176 147.621 78.5916 146.698 79.5396C145.8 80.4627 145.351 81.8473 145.351 83.6935C145.351 85.5396 145.8 86.9367 146.698 87.8847C147.621 88.8078 148.706 89.2693 149.954 89.2693ZM163.742 92.9741V74.4128H168.008L168.457 77.8931C169.13 76.6956 170.041 75.7475 171.189 75.049C172.361 74.3255 173.733 73.9637 175.305 73.9637V79.0157H173.958C172.91 79.0157 171.974 79.1779 171.151 79.5022C170.328 79.8265 169.679 80.3879 169.205 81.1862C168.756 81.9845 168.532 83.0947 168.532 84.5167V92.9741H163.742ZM187.269 93.4232C185.398 93.4232 183.738 93.024 182.292 92.2257C180.845 91.4273 179.709 90.3047 178.886 88.8577C178.063 87.4107 177.651 85.7392 177.651 83.8432C177.651 81.9222 178.05 80.2132 178.849 78.7163C179.672 77.2195 180.795 76.0594 182.217 75.2361C183.664 74.3879 185.36 73.9637 187.306 73.9637C189.127 73.9637 190.736 74.3629 192.133 75.1613C193.531 75.9596 194.616 77.0573 195.389 78.4544C196.188 79.8265 196.587 81.3608 196.587 83.0573C196.587 83.3317 196.574 83.6186 196.549 83.918C196.549 84.2174 196.537 84.5292 196.512 84.8535H182.404C182.504 86.3005 183.003 87.4357 183.901 88.2589C184.824 89.0822 185.934 89.4939 187.231 89.4939C188.204 89.4939 189.015 89.2818 189.664 88.8577C190.337 88.4086 190.836 87.8348 191.161 87.1363H196.025C195.676 88.3088 195.09 89.3816 194.267 90.3546C193.468 91.3026 192.47 92.051 191.273 92.5999C190.1 93.1488 188.766 93.4232 187.269 93.4232ZM187.306 77.8556C186.134 77.8556 185.098 78.1924 184.2 78.866C183.302 79.5147 182.728 80.5126 182.479 81.8598H191.722C191.647 80.6373 191.198 79.6644 190.375 78.9409C189.551 78.2174 188.529 77.8556 187.306 77.8556Z" fill="white"/>
</svg>
