<svg width="30" height="30" viewBox="0 0 30 30" fill="none" xmlns="http://www.w3.org/2000/svg">
<path d="M28.2 29.55C28.9667 30.3167 30.15 29.1333 29.3833 28.3833L23.1333 22.1167C25.3263 19.6912 26.5382 16.5365 26.5333 13.2667C26.5333 5.95 20.5833 0 13.2667 0C5.95 0 0 5.95 0 13.2667C0 20.5833 5.95 26.5333 13.2667 26.5333C16.5667 26.5333 19.6167 25.3167 21.95 23.3L28.2 29.55ZM1.665 13.2667C1.665 6.86667 6.88167 1.66667 13.265 1.66667C19.665 1.66667 24.865 6.86667 24.865 13.2667C24.865 19.6667 19.665 24.8667 13.265 24.8667C6.88167 24.8667 1.665 19.6667 1.665 13.2667Z" fill="#F8F8F8"/>
</svg>
