<svg width="36" height="41" viewBox="0 0 36 41" fill="none" xmlns="http://www.w3.org/2000/svg">
<path d="M31.0802 8.75952C30.8037 8.61652 30.5346 8.45977 30.2738 8.28987C29.5159 7.78877 28.821 7.19838 28.204 6.53141C26.6586 4.76385 26.0815 2.97081 25.8704 1.71659H25.8776C25.7011 0.673529 25.7739 0 25.7866 0H18.751V27.2015C18.751 27.5655 18.751 27.9278 18.7364 28.2846C18.7364 28.3283 18.7309 28.3683 18.7291 28.4175C18.7291 28.4357 18.7291 28.4575 18.7237 28.4775V28.4939C18.6498 29.4697 18.3372 30.4123 17.8135 31.2389C17.2897 32.0654 16.5708 32.7506 15.7201 33.2341C14.8325 33.739 13.8287 34.0038 12.8075 34.0023C9.53091 34.0023 6.8732 31.33 6.8732 28.0297C6.8732 24.7276 9.53091 22.0553 12.8075 22.0553C13.4283 22.0553 14.0454 22.1536 14.6352 22.3466L14.6443 15.1817C12.8531 14.9506 11.0334 15.0934 9.30016 15.6009C7.5669 16.1085 5.95769 16.9699 4.5741 18.1307C3.36148 19.1838 2.34196 20.4405 1.56142 21.8442C1.2647 22.3557 0.143369 24.4145 0.00866365 27.753C-0.0768927 29.6462 0.492876 31.6122 0.764108 32.4222V32.4404C0.933401 32.9174 1.59601 34.5484 2.67365 35.9228C3.54268 37.0259 4.56945 37.995 5.72092 38.7989V38.7807L5.7373 38.7989C9.14135 41.1107 12.9186 40.9597 12.9186 40.9597C13.5721 40.9324 15.762 40.9597 18.2486 39.7819C21.0064 38.4749 22.5755 36.5289 22.5755 36.5289C23.5787 35.366 24.3765 34.0406 24.9347 32.6097C25.5718 30.935 25.783 28.929 25.783 28.128V13.6945C25.8685 13.7455 27.0063 14.4973 27.0063 14.4973C27.0063 14.4973 28.6446 15.5476 31.1985 16.2302C33.0298 16.7163 35.5 16.82 35.5 16.82V9.83534C34.6353 9.93 32.8787 9.65695 31.0784 8.76134" fill="#FF5757"/>
</svg>
