<svg width="37" height="31" viewBox="0 0 37 31" fill="none" xmlns="http://www.w3.org/2000/svg">
<path d="M36.97 3.56814C35.5854 4.18058 34.1172 4.5828 32.6138 4.76149C34.1971 3.81323 35.3818 2.32173 35.9471 0.564842C34.46 1.44987 32.8296 2.07012 31.1321 2.40563C29.9906 1.18433 28.4776 0.374349 26.8283 0.101624C25.179 -0.171101 23.4859 0.108708 22.012 0.89755C20.5381 1.68639 19.3662 2.94007 18.6784 4.46368C17.9905 5.98729 17.8253 7.69547 18.2084 9.32266C15.1923 9.17176 12.2417 8.38817 9.54807 7.02278C6.85448 5.6574 4.47818 3.74074 2.57348 1.39728C1.89935 2.55517 1.5451 3.87142 1.54699 5.21126C1.54699 7.84096 2.88723 10.1642 4.92027 11.5244C3.71607 11.4864 2.53838 11.1612 1.48533 10.5759V10.6683C1.48527 12.42 2.09113 14.1178 3.20013 15.4738C4.30914 16.8297 5.85302 17.7603 7.56992 18.1077C6.4521 18.4109 5.27989 18.4556 4.14224 18.2383C4.62632 19.7461 5.56992 21.0647 6.84085 22.0094C8.11178 22.9542 9.6464 23.4777 11.2297 23.5067C9.65619 24.7426 7.85445 25.6562 5.92755 26.1951C4.00065 26.7341 1.9864 26.888 0 26.6479C3.46708 28.8775 7.50301 30.0612 11.6251 30.0574C25.5789 30.0574 33.2068 18.4994 33.2068 8.47572C33.2068 8.14927 33.1996 7.8192 33.185 7.49456C34.6693 6.42157 35.9504 5.09258 36.9682 3.56996" fill="#FF5757"/>
</svg>
