<svg width="21" height="24" viewBox="0 0 21 24" fill="none" xmlns="http://www.w3.org/2000/svg">
<path d="M1.43758 11.7C1.12727 11.7 0.829681 11.8233 0.610263 12.0427C0.390846 12.2621 0.267578 12.5597 0.267578 12.87V22.23C0.267578 22.5403 0.390846 22.8379 0.610263 23.0573C0.829681 23.2767 1.12727 23.4 1.43758 23.4C1.74788 23.4 2.04548 23.2767 2.26489 23.0573C2.48431 22.8379 2.60758 22.5403 2.60758 22.23V12.87C2.60758 12.5597 2.48431 12.2621 2.26489 12.0427C2.04548 11.8233 1.74788 11.7 1.43758 11.7ZM7.28758 0C6.97728 0 6.67968 0.123267 6.46026 0.342685C6.24085 0.562103 6.11758 0.859697 6.11758 1.17V22.23C6.11758 22.5403 6.24085 22.8379 6.46026 23.0573C6.67968 23.2767 6.97728 23.4 7.28758 23.4C7.59788 23.4 7.89548 23.2767 8.11489 23.0573C8.33431 22.8379 8.45758 22.5403 8.45758 22.23V1.17C8.45758 0.859697 8.33431 0.562103 8.11489 0.342685C7.89548 0.123267 7.59788 0 7.28758 0ZM18.9876 16.38C18.6773 16.38 18.3797 16.5033 18.1603 16.7227C17.9408 16.9421 17.8176 17.2397 17.8176 17.55V22.23C17.8176 22.5403 17.9408 22.8379 18.1603 23.0573C18.3797 23.2767 18.6773 23.4 18.9876 23.4C19.2979 23.4 19.5955 23.2767 19.8149 23.0573C20.0343 22.8379 20.1576 22.5403 20.1576 22.23V17.55C20.1576 17.2397 20.0343 16.9421 19.8149 16.7227C19.5955 16.5033 19.2979 16.38 18.9876 16.38ZM13.1376 7.02C12.8273 7.02 12.5297 7.14327 12.3103 7.36269C12.0908 7.5821 11.9676 7.8797 11.9676 8.19V22.23C11.9676 22.5403 12.0908 22.8379 12.3103 23.0573C12.5297 23.2767 12.8273 23.4 13.1376 23.4C13.4479 23.4 13.7455 23.2767 13.9649 23.0573C14.1843 22.8379 14.3076 22.5403 14.3076 22.23V8.19C14.3076 7.8797 14.1843 7.5821 13.9649 7.36269C13.7455 7.14327 13.4479 7.02 13.1376 7.02Z" fill="#FF5757"/>
</svg>
