<svg width="205" height="41" viewBox="0 0 205 41" fill="none" xmlns="http://www.w3.org/2000/svg">
<path d="M15.6777 18.418C14.7663 18.1576 13.6595 18.0111 12.3574 17.9785C11.1855 17.9785 10.0137 18.125 8.8418 18.418C7.70247 18.6784 6.79102 19.1341 6.10742 19.7852V30.2344V30.332V40H0.199219V12.4609H5.47266L6.10742 15.293C6.5957 14.8047 7.10026 14.3652 7.62109 13.9746C8.17448 13.584 8.80924 13.2747 9.52539 13.0469C10.2415 12.7865 11.0879 12.5911 12.0645 12.4609C13.041 12.3307 14.2454 12.2656 15.6777 12.2656V18.418ZM21.7812 13.4375V12.4609H27.7383V27.4512C27.7383 28.5905 27.7871 29.6647 27.8848 30.6738C27.9824 31.6504 28.194 32.513 28.5195 33.2617C28.8451 34.0104 29.3333 34.6126 29.9844 35.0684C30.6354 35.5241 31.498 35.752 32.5723 35.752C32.8978 35.752 33.3535 35.7194 33.9395 35.6543C34.5254 35.5566 35.1113 35.4102 35.6973 35.2148C36.3158 35.0195 36.8854 34.7754 37.4062 34.4824C37.9596 34.1895 38.3665 33.8477 38.627 33.457V33.1152V33.0664V22.1289V22.0801V12.4609H44.584V40H39.2617L38.627 37.168C38.2363 37.526 37.748 37.8841 37.1621 38.2422C36.5762 38.6003 35.9251 38.9421 35.209 39.2676C34.5254 39.5605 33.8092 39.8047 33.0605 40C32.3444 40.1628 31.6283 40.2441 30.9121 40.2441C30.1309 40.2441 29.431 40.1628 28.8125 40C28.194 39.8698 27.6081 39.6582 27.0547 39.3652C26.5339 39.0397 26.0293 38.6816 25.541 38.291C25.0527 37.9004 24.5645 37.4609 24.0762 36.9727C23.5228 36.4193 23.0833 35.7845 22.7578 35.0684C22.4323 34.3197 22.1882 33.5547 22.0254 32.7734C21.8952 31.9596 21.8138 31.1458 21.7812 30.332C21.7812 29.5182 21.7812 28.7207 21.7812 27.9395V13.3887V13.4375ZM52.3477 37.8027L54.8379 33.8477C55.4889 34.3034 56.2539 34.7266 57.1328 35.1172C58.0443 35.5078 59.1836 35.7031 60.5508 35.7031C62.3411 35.7031 63.7409 35.4264 64.75 34.873C65.7591 34.3197 66.2637 33.5059 66.2637 32.4316C66.2637 31.6504 65.9707 31.0319 65.3848 30.5762C64.7988 30.0879 64.0501 29.681 63.1387 29.3555C62.2598 28.9974 61.2995 28.6719 60.2578 28.3789C59.2487 28.0534 58.3047 27.6628 57.4258 27.207C55.7005 26.2956 54.3984 25.3353 53.5195 24.3262C52.6732 23.3171 52.25 21.9824 52.25 20.3223C52.25 18.9551 52.5267 17.7507 53.0801 16.709C53.666 15.6673 54.4147 14.8047 55.3262 14.1211C56.2376 13.4049 57.2793 12.8678 58.4512 12.5098C59.623 12.1517 60.8112 11.9727 62.0156 11.9727C63.6432 11.9727 65.1406 12.1517 66.5078 12.5098C67.875 12.8353 69.1934 13.4049 70.4629 14.2188L68.5586 18.2715C67.582 17.7181 66.5241 17.3438 65.3848 17.1484C64.2454 16.9206 63.1224 16.8066 62.0156 16.8066C60.8112 16.8066 59.8509 17.0833 59.1348 17.6367C58.4512 18.1576 58.1094 18.9876 58.1094 20.127C58.1094 21.0059 58.4186 21.7057 59.0371 22.2266C59.6882 22.7148 60.5182 23.1543 61.5273 23.5449C62.5365 23.9355 63.6107 24.3262 64.75 24.7168C65.8893 25.1074 66.9473 25.612 67.9238 26.2305C68.9329 26.8164 69.763 27.5651 70.4141 28.4766C71.0651 29.388 71.3906 30.5599 71.3906 31.9922C71.3906 33.3919 71.1139 34.6126 70.5605 35.6543C70.0072 36.696 69.2585 37.5586 68.3145 38.2422C67.3704 38.9258 66.2799 39.4303 65.043 39.7559C63.806 40.0814 62.4876 40.2441 61.0879 40.2441C60.2415 40.2441 59.4603 40.2116 58.7441 40.1465C58.028 40.1139 57.3281 40.0163 56.6445 39.8535C55.9609 39.6908 55.2773 39.4466 54.5938 39.1211C53.9102 38.7956 53.1615 38.3561 52.3477 37.8027ZM101.859 40H95.9023V25.0098C95.9023 23.903 95.8535 22.8451 95.7559 21.8359C95.6582 20.8268 95.4303 19.9316 95.0723 19.1504C94.7142 18.3691 94.2259 17.7669 93.6074 17.3438C92.9889 16.888 92.1263 16.6602 91.0195 16.6602C90.6615 16.6602 90.1895 16.709 89.6035 16.8066C89.0501 16.9043 88.4642 17.0508 87.8457 17.2461C87.2598 17.4414 86.6901 17.6855 86.1367 17.9785C85.6159 18.2715 85.2253 18.6133 84.9648 19.0039V19.2969V19.3945V30.2344V30.332V40H79.0566V2.06055H84.9648V15.2441C85.3555 14.8861 85.8438 14.528 86.4297 14.1699C87.0482 13.7793 87.7155 13.4375 88.4316 13.1445C89.1478 12.8516 89.8802 12.6237 90.6289 12.4609C91.3776 12.2656 92.11 12.168 92.8262 12.168C94.291 12.168 95.528 12.4772 96.5371 13.0957C97.5462 13.7142 98.5553 14.5117 99.5645 15.4883C100.118 16.0417 100.541 16.6927 100.834 17.4414C101.16 18.1576 101.387 18.9225 101.518 19.7363C101.68 20.5176 101.778 21.3151 101.811 22.1289C101.843 22.9427 101.859 23.7402 101.859 24.5215V39.0234V40Z" fill="#FF5757"/>
<path d="M114.652 31.6016C114.652 32.7083 114.799 33.5872 115.092 34.2383C115.385 34.8568 115.792 35.3288 116.312 35.6543C116.833 35.9473 117.419 36.1426 118.07 36.2402C118.754 36.3379 119.486 36.3867 120.268 36.3867V40C119.844 40.0651 119.405 40.1139 118.949 40.1465C118.591 40.179 118.168 40.1953 117.68 40.1953C117.191 40.2279 116.703 40.2441 116.215 40.2441C115.727 40.2441 115.238 40.2279 114.75 40.1953C114.262 40.1628 113.822 40.1139 113.432 40.0488C112.325 39.821 111.462 39.3327 110.844 38.584C110.225 37.8353 109.753 37.0052 109.428 36.0938C109.102 35.1497 108.891 34.2383 108.793 33.3594C108.728 32.4805 108.695 31.7969 108.695 31.3086V30.7227V2.06055H114.652V31.6016ZM132.426 40H126.469V12.4609H132.426V40ZM132.963 3.67188C132.963 4.64844 132.621 5.47852 131.938 6.16211C131.254 6.81315 130.424 7.13867 129.447 7.13867C128.471 7.13867 127.641 6.79688 126.957 6.11328C126.306 5.42969 125.98 4.61589 125.98 3.67188C125.98 2.69531 126.322 1.86523 127.006 1.18164C127.689 0.498047 128.503 0.15625 129.447 0.15625C130.424 0.15625 131.254 0.498047 131.938 1.18164C132.621 1.86523 132.963 2.69531 132.963 3.67188ZM163.529 40H157.572V25.0098C157.572 23.903 157.523 22.8451 157.426 21.8359C157.328 20.8268 157.1 19.9316 156.742 19.1504C156.384 18.3691 155.896 17.7669 155.277 17.3438C154.659 16.888 153.796 16.6602 152.689 16.6602C152.331 16.6602 151.859 16.709 151.273 16.8066C150.72 16.9043 150.134 17.0508 149.516 17.2461C148.93 17.4414 148.36 17.6855 147.807 17.9785C147.286 18.2715 146.895 18.6133 146.635 19.0039V19.2969V19.3945V30.2344V30.332V40H140.727V12.4609H146L146.635 15.2441C147.025 14.8861 147.514 14.528 148.1 14.1699C148.718 13.7793 149.385 13.4375 150.102 13.1445C150.818 12.8516 151.55 12.6237 152.299 12.4609C153.048 12.2656 153.78 12.168 154.496 12.168C155.961 12.168 157.198 12.4772 158.207 13.0957C159.216 13.7142 160.225 14.5117 161.234 15.4883C161.788 16.0417 162.211 16.6927 162.504 17.4414C162.829 18.1576 163.057 18.9225 163.188 19.7363C163.35 20.5176 163.448 21.3151 163.48 22.1289C163.513 22.9427 163.529 23.7402 163.529 24.5215V39.0234V40ZM187.65 40L177.641 26.8164V40H171.684V2.06055H177.641V25.5957L186.479 12.4609H193.119L183.451 26.1816L194.389 40H187.65ZM204.789 36.6797C204.789 37.6562 204.447 38.4863 203.764 39.1699C203.08 39.8535 202.25 40.1953 201.273 40.1953C200.297 40.1953 199.467 39.8535 198.783 39.1699C198.132 38.4863 197.807 37.6562 197.807 36.6797C197.807 35.7031 198.148 34.8893 198.832 34.2383C199.516 33.5547 200.329 33.2129 201.273 33.2129C202.25 33.2129 203.08 33.5547 203.764 34.2383C204.447 34.8893 204.789 35.7031 204.789 36.6797Z" fill="#FAFAFA"/>
</svg>
